<svg width="52" height="52" viewBox="0 0 52 52" fill="none" xmlns="http://www.w3.org/2000/svg">
<circle cx="26" cy="26" r="25.5" fill="white" stroke="#E0E0E0"/>
<path d="M23.7188 32.3066C23.7188 31.3714 24.4769 30.6133 25.4121 30.6133H25.5176C26.4528 30.6133 27.2109 31.3714 27.2109 32.3066C27.2109 33.2419 26.4528 34 25.5176 34H25.4121C24.4769 34 23.7188 33.2419 23.7188 32.3066ZM21.1704 22.1758C20.2275 22.1758 19.4464 21.3799 19.6789 20.4661C20.0212 19.1204 20.7194 18.1121 21.7734 17.4414C22.6953 16.8477 23.8281 16.5508 25.1719 16.5508C26.9375 16.5508 28.4023 16.9727 29.5664 17.8164C30.7383 18.6602 31.3242 19.9102 31.3242 21.5664C31.3242 22.582 31.0703 23.4375 30.5625 24.1328C30.2656 24.5547 29.6953 25.0938 28.8516 25.75L28.0195 26.3945C27.5664 26.7461 27.2656 27.1562 27.1172 27.625C26.8843 28.3626 26.3429 29.0078 25.5694 29.0078H25.4208C24.5355 29.0078 23.8067 28.2704 23.9219 27.3927C23.9853 26.9096 24.07 26.5378 24.1758 26.2773C24.3789 25.7695 24.9023 25.1875 25.7461 24.5312L26.6016 23.8633C26.8828 23.6523 27.1094 23.4219 27.2812 23.1719C27.5938 22.7422 27.75 22.2695 27.75 21.7539C27.75 21.1602 27.5742 20.6211 27.2227 20.1367C26.8789 19.6445 26.2461 19.3984 25.3242 19.3984C24.418 19.3984 23.7734 19.6992 23.3906 20.3008C23.3322 20.3946 23.2782 20.4889 23.2289 20.5839C22.8066 21.3962 22.0859 22.1758 21.1704 22.1758Z" fill="#828282"/>
</svg>
